<?xml version="1.0" encoding="UTF-8" standalone="no"?>
<svg
   xmlns:dc="http://purl.org/dc/elements/1.1/"
   xmlns:cc="http://creativecommons.org/ns#"
   xmlns:rdf="http://www.w3.org/1999/02/22-rdf-syntax-ns#"
   xmlns:svg="http://www.w3.org/2000/svg"
   xmlns="http://www.w3.org/2000/svg"
   xmlns:sodipodi="http://sodipodi.sourceforge.net/DTD/sodipodi-0.dtd"
   xmlns:inkscape="http://www.inkscape.org/namespaces/inkscape"
   width="24"
   height="24"
   viewBox="0 0 24 24"
   fill="none"
   stroke="currentColor"
   stroke-width="2"
   stroke-linecap="round"
   stroke-linejoin="round"
   version="1.1"
   id="svg26"
   sodipodi:docname="box-select.svg"
   inkscape:version="1.0.2 (e86c870879, 2021-01-15, custom)">
  <metadata
     id="metadata32">
    <rdf:RDF>
      <cc:Work
         rdf:about="">
        <dc:format>image/svg+xml</dc:format>
        <dc:type
           rdf:resource="http://purl.org/dc/dcmitype/StillImage" />
      </cc:Work>
    </rdf:RDF>
  </metadata>
  <defs
     id="defs30" />
  <sodipodi:namedview
     pagecolor="#ffffff"
     bordercolor="#666666"
     borderopacity="1"
     objecttolerance="10"
     gridtolerance="10"
     guidetolerance="10"
     inkscape:pageopacity="0"
     inkscape:pageshadow="2"
     inkscape:window-width="1651"
     inkscape:window-height="982"
     id="namedview28"
     showgrid="false"
     inkscape:zoom="30.625"
     inkscape:cx="12"
     inkscape:cy="12"
     inkscape:window-x="0"
     inkscape:window-y="0"
     inkscape:window-maximized="0"
     inkscape:current-layer="svg26" />
  <line
     x1="8"
     y1="2"
     x2="10"
     y2="2"
     id="line4" />
  <line
     x1="14"
     y1="2"
     x2="16"
     y2="2"
     id="line6" />
  <line
     x1="22"
     y1="8"
     x2="22"
     y2="10"
     id="line10" />
  <line
     x1="22"
     y1="14"
     x2="22"
     y2="16"
     id="line12" />
  <line
     x1="14"
     y1="22"
     x2="16"
     y2="22"
     id="line16" />
  <line
     x1="8"
     y1="22"
     x2="10"
     y2="22"
     id="line18" />
  <line
     x1="2"
     y1="14"
     x2="2"
     y2="16"
     id="line22" />
  <line
     x1="2"
     y1="8"
     x2="2"
     y2="10"
     id="line24" />
  <path
     d="M 4,2 V 2 C 3.0561255,1.9779126 2.0315759,2.631114 2,4"
     id="path957"
     sodipodi:nodetypes="ccc" />
  <path
     d="M 22,4 V 4 C 22.02209,3.056125 21.368886,2.031576 20,2"
     id="path957-1"
     sodipodi:nodetypes="ccc" />
  <path
     d="m 2.0005622,20 v 0 c -0.02209,0.943875 0.631114,1.968424 2,2"
     id="path957-4"
     sodipodi:nodetypes="ccc" />
  <path
     d="m 20,22 v 0 c 0.943874,0.02209 1.968424,-0.631114 2,-2"
     id="path957-2"
     sodipodi:nodetypes="ccc" />
</svg>
