<?xml version="1.0" encoding="UTF-8" standalone="no"?>
<svg
   xmlns:dc="http://purl.org/dc/elements/1.1/"
   xmlns:cc="http://creativecommons.org/ns#"
   xmlns:rdf="http://www.w3.org/1999/02/22-rdf-syntax-ns#"
   xmlns:svg="http://www.w3.org/2000/svg"
   xmlns="http://www.w3.org/2000/svg"
   xmlns:sodipodi="http://sodipodi.sourceforge.net/DTD/sodipodi-0.dtd"
   xmlns:inkscape="http://www.inkscape.org/namespaces/inkscape"
   width="24"
   height="24"
   viewBox="0 0 24 24"
   fill="none"
   stroke="currentColor"
   stroke-width="2"
   stroke-linecap="round"
   stroke-linejoin="round"
   version="1.1"
   id="svg30"
   sodipodi:docname="boolCut.svg"
   inkscape:version="1.0.2 (e86c870879, 2021-01-15, custom)">
  <metadata
     id="metadata36">
    <rdf:RDF>
      <cc:Work
         rdf:about="">
        <dc:format>image/svg+xml</dc:format>
        <dc:type
           rdf:resource="http://purl.org/dc/dcmitype/StillImage" />
        <dc:title></dc:title>
      </cc:Work>
    </rdf:RDF>
  </metadata>
  <defs
     id="defs34" />
  <sodipodi:namedview
     pagecolor="#ffffff"
     bordercolor="#666666"
     borderopacity="1"
     objecttolerance="10"
     gridtolerance="10"
     guidetolerance="10"
     inkscape:pageopacity="0"
     inkscape:pageshadow="2"
     inkscape:window-width="1762"
     inkscape:window-height="878"
     id="namedview32"
     showgrid="false"
     inkscape:zoom="21.655145"
     inkscape:cx="-2.3906553"
     inkscape:cy="11.364673"
     inkscape:window-x="0"
     inkscape:window-y="0"
     inkscape:window-maximized="0"
     inkscape:current-layer="svg30"
     inkscape:snap-midpoints="true"
     inkscape:document-rotation="0" />
  <path
     d="M 19.789812,21.28573 H 9.2898121 c -0.8284271,0 -1.5,-0.671573 -1.5,-1.5 V 9.2857305 c 0,-0.8284271 0.6715752,-1.4980502 1.5,-1.5 l 10.4051019,-0.02449 c 0.783807,0.023329 1.566331,0.7893286 1.594898,1.6438776 V 19.78573 c 0,0.828427 -0.671573,1.5 -1.5,1.5 z"
     id="path24"
     sodipodi:nodetypes="sssssccss"
     style="stroke-width:2;stroke-miterlimit:4;stroke-dasharray:none" />
  <path
     d="M 14.254788,15.582319 H 3.7547877 c -0.828427,0 -1.5,-0.671573 -1.5,-1.5 V 3.5823193 c 0,-0.828427 0.671575,-1.49805 1.5,-1.5 L 14.15989,2.0578293 c 0.783807,0.02333 1.566331,0.789329 1.594898,1.643878 V 14.082319 c 0,0.828427 -0.671573,1.5 -1.5,1.5 z"
     id="path24-1"
     sodipodi:nodetypes="sssssccss"
     style="stroke-width:2;stroke-miterlimit:4;stroke-dasharray:none" />
  <path
     d="M 13.093974,14.135996 H 4.8069466 c -0.6538283,0 -1.1838615,-0.530033 -1.1838615,-1.183862 V 4.6651063 c 0,-0.6538283 0.5300351,-1.182322 1.1838615,-1.1838611 l 8.2121304,-0.019328 c 0.618613,0.018413 1.236213,0.6229707 1.258758,1.2974155 v 8.1928013 c 0,0.653829 -0.530032,1.183862 -1.183861,1.183862 z"
     id="path24-1-2"
     sodipodi:nodetypes="sssssccss"
     style="stroke-width:2;stroke-miterlimit:4;stroke-dasharray:none" />
  <path
     d="M 11.954387,12.622342 H 5.9459658 c -0.4740508,0 -0.8583457,-0.384294 -0.8583457,-0.858346 V 5.7555734 c 0,-0.4740514 0.3842958,-0.8572303 0.8583457,-0.8583461 l 5.9541172,-0.014014 c 0.44852,0.01335 0.896304,0.4516783 0.91265,0.9406776 v 5.9401051 c 0,0.474052 -0.384294,0.858346 -0.858346,0.858346 z"
     id="path24-1-2-5"
     sodipodi:nodetypes="sssssccss"
     style="stroke-width:2.16129;stroke-miterlimit:4;stroke-dasharray:none" />
  <path
     d="M 10.824629,11.364785 H 7.0925906 c -0.2944494,0 -0.5331483,-0.257306 -0.5331483,-0.57471 V 6.7671014 c 0,-0.3174038 0.2386997,-0.5739634 0.5331483,-0.5747105 l 3.6983084,-0.00938 c 0.278591,0.00894 0.556726,0.3024237 0.566878,0.629836 v 3.9772301 c 0,0.317405 -0.238698,0.574711 -0.533148,0.574711 z"
     id="path24-1-2-5-2"
     sodipodi:nodetypes="sssssccss"
     style="stroke-width:2;stroke-miterlimit:4;stroke-dasharray:none" />
  <path
     d="m 7.9238852,10.124053 h 2.4114268 c 0.190257,0 0.344491,-0.1661893 0.344491,-0.3711943 V 7.1545001 c 0,-0.2050048 -0.154234,-0.3707115 -0.344491,-0.3711941 L 7.9456792,6.777246 c -0.180009,0.00577 -0.359724,0.1953295 -0.366284,0.4067986 v 2.5688141 c 0,0.205006 0.154233,0.3711953 0.34449,0.3711943 z"
     id="path24-1-2-5-2-8"
     sodipodi:nodetypes="sssssccss"
     style="stroke-width:2;stroke-miterlimit:4;stroke-dasharray:none" />
  <path
     d="m 7.9238852,10.124055 h 1.4178502 c 0.1118657,0 0.2025509,-0.109635 0.2025509,-0.244877 V 8.1650434 c 0,-0.1352415 -0.090685,-0.244558 -0.2025509,-0.2448764 l -1.4050359,-0.004 C 7.8308593,7.919977 7.725192,8.0450257 7.7213349,8.1845317 V 9.879176 c 0,0.135243 0.090685,0.244878 0.2025503,0.244877 z"
     id="path24-1-2-5-2-8-9"
     sodipodi:nodetypes="sssssccss"
     style="stroke-width:2;stroke-miterlimit:4;stroke-dasharray:none" />
</svg>
