<?xml version="1.0" encoding="UTF-8" standalone="no"?>
<svg
   xmlns:dc="http://purl.org/dc/elements/1.1/"
   xmlns:cc="http://creativecommons.org/ns#"
   xmlns:rdf="http://www.w3.org/1999/02/22-rdf-syntax-ns#"
   xmlns:svg="http://www.w3.org/2000/svg"
   xmlns="http://www.w3.org/2000/svg"
   xmlns:sodipodi="http://sodipodi.sourceforge.net/DTD/sodipodi-0.dtd"
   xmlns:inkscape="http://www.inkscape.org/namespaces/inkscape"
   width="24"
   height="24"
   viewBox="0 0 24 24"
   fill="none"
   stroke="currentColor"
   stroke-width="2"
   stroke-linecap="round"
   stroke-linejoin="round"
   version="1.1"
   id="svg30"
   sodipodi:docname="boolCommon.svg"
   inkscape:version="1.0.2 (e86c870879, 2021-01-15, custom)">
  <metadata
     id="metadata36">
    <rdf:RDF>
      <cc:Work
         rdf:about="">
        <dc:format>image/svg+xml</dc:format>
        <dc:type
           rdf:resource="http://purl.org/dc/dcmitype/StillImage" />
        <dc:title></dc:title>
      </cc:Work>
    </rdf:RDF>
  </metadata>
  <defs
     id="defs34" />
  <sodipodi:namedview
     pagecolor="#ffffff"
     bordercolor="#666666"
     borderopacity="1"
     objecttolerance="10"
     gridtolerance="10"
     guidetolerance="10"
     inkscape:pageopacity="0"
     inkscape:pageshadow="2"
     inkscape:window-width="1762"
     inkscape:window-height="878"
     id="namedview32"
     showgrid="false"
     inkscape:zoom="21.655145"
     inkscape:cx="-2.3906553"
     inkscape:cy="11.364673"
     inkscape:window-x="0"
     inkscape:window-y="0"
     inkscape:window-maximized="0"
     inkscape:current-layer="svg30"
     inkscape:snap-midpoints="true"
     inkscape:document-rotation="0" />
  <path
     d="M 19.789812,21.28573 H 9.2898121 c -0.8284271,0 -1.5,-0.671573 -1.5,-1.5 V 9.2857305 c 0,-0.8284271 0.6715752,-1.4980502 1.5,-1.5 l 10.4051019,-0.02449 c 0.783807,0.023329 1.566331,0.7893286 1.594898,1.6438776 V 19.78573 c 0,0.828427 -0.671573,1.5 -1.5,1.5 z"
     id="path24"
     sodipodi:nodetypes="sssssccss"
     style="stroke-width:2;stroke-miterlimit:4;stroke-dasharray:none" />
  <path
     d="M 14.254788,15.582319 H 3.7547877 c -0.828427,0 -1.5,-0.671573 -1.5,-1.5 V 3.5823193 c 0,-0.828427 0.671575,-1.49805 1.5,-1.5 L 14.15989,2.0578293 c 0.783807,0.02333 1.566331,0.789329 1.594898,1.643878 V 14.082319 c 0,0.828427 -0.671573,1.5 -1.5,1.5 z"
     id="path24-1"
     sodipodi:nodetypes="sssssccss"
     style="stroke-width:2;stroke-miterlimit:4;stroke-dasharray:none" />
  <path
     d="m 9.4446358,14.505043 h 4.3753972 c 0.345212,0 0.625059,-0.279339 0.625059,-0.623924 V 9.5136462 c 0,-0.3445849 -0.279833,-0.6231142 -0.625059,-0.6239256 L 9.4841785,8.8795376 c -0.3266139,0.00971 -0.6526979,0.3283213 -0.6645999,0.683771 v 4.3178134 c 0,0.344588 0.279848,0.623928 0.6250572,0.623926 z"
     id="path24-1-2-5-2-8-9"
     sodipodi:nodetypes="sssssccss"
     style="stroke-width:2;stroke-miterlimit:4;stroke-dasharray:none" />
  <path
     d="m 10.552308,13.363937 h 2.460175 c 0.194105,0 0.351455,-0.157066 0.351455,-0.350816 V 10.5574 c 0,-0.193751 -0.157341,-0.350361 -0.351455,-0.350817 l -2.43794,-0.0057 c -0.183646,0.0055 -0.366995,0.184606 -0.373687,0.384467 v 2.427798 c 0,0.193751 0.15735,0.350817 0.351452,0.350816 z"
     id="path24-1-2-5-2-8-9-0"
     sodipodi:nodetypes="sssssccss"
     style="stroke-width:2;stroke-miterlimit:4;stroke-dasharray:none" />
  <path
     d="m 11.159337,12.138879 h 1.139953 c 0.08994,0 0.162851,-0.07278 0.162851,-0.162555 v -1.137888 c 0,-0.08978 -0.07291,-0.162344 -0.162851,-0.162556 l -1.12965,-0.0026 c -0.0851,0.0025 -0.170052,0.08554 -0.173153,0.178148 v 1.12495 c 0,0.08978 0.07291,0.162555 0.16285,0.162555 z"
     id="path24-1-2-5-2-8-9-0-6"
     sodipodi:nodetypes="sssssccss"
     style="stroke-width:2;stroke-miterlimit:4;stroke-dasharray:none" />
</svg>
